# xmcd CD database file
# Copyright (C) 1997 Ti Kan
# 
# Track frame offsets:
#     183
#     10628
#     20420
#     28668
#     40245
#     49460
#     61575
#     71388
#     85238
#     95793
#     112040
#     122358
#     131095
#     141718
#     154115
#     165960
#     180483
# 
# Disc length: 2554 seconds
# 
# Revision: 1
# Processed by: cddbd v1.4b41PL1 Copyright (c) Steve Scherf et al.
# Submitted via: DiscPlay 4.0.3
# 
DISCID=df09f811
DTITLE=Various Artist - Country Star Collection No.1
DYEAR=1900
DGENRE=
TTITLE0=Dave Dudley, Six days on the road
TTITLE1=Mickey Gilley, Fraulein
TTITLE2=Willie Nelson, Half a man
TTITLE3=Lynn Anderson, Listen to a country song
TTITLE4=Frankie Lane, Rawhide
TTITLE5=Waylon Jennings, Don't think twice
TTITLE6=Anne Murray, It's all over
TTITLE7=Willie Nelson, Home is where you're happy
TTITLE8=Ferlin Huskey, Wings of a dove
TTITLE9=Lynn Anderson, The evil went down to Georgia
TTITLE10=Willie Nelson, Broken Promises
TTITLE11=Anne Murray, Paths of Victory
TTITLE12=Waylon Jennings, Burning Memories
TTITLE13=Billie Jo Spears, The cheating kind
TTITLE14=Roy Drusky, Three hearts in a tangle
TTITLE15=Anne Murray, Both sides now
TTITLE16=Frankie Laine, Answer me
EXTD=
EXTT0=
EXTT1=
EXTT2=
EXTT3=
EXTT4=
EXTT5=
EXTT6=
EXTT7=
EXTT8=
EXTT9=
EXTT10=
EXTT11=
EXTT12=
EXTT13=
EXTT14=
EXTT15=
EXTT16=
PLAYORDER=
